<svg xmlns="http://www.w3.org/2000/svg" viewBox="0 0 200 220" fill="none">
  <g fill="#e8c872">
    <path d="M100 48c-8 0-16-6-22-16-2 12-10 20-22 22 10 4 16 12 18 24-8-4-18-4-28 2 10 8 16 20 16 34 0 8-4 14-10 18 14 2 24 12 28 26-6-2-14 0-20 8 16 6 26 18 28 34 2-16 12-28 28-34-6-8-14-10-20-8 4-14 14-24 28-26-6-4-10-10-10-18 0-14 6-26 16-34-10-6-20-6-28-2 2-12 8-20 18-24-12-2-20-10-22-22-6 10-14 16-22 16z"/>
    <path d="M58 86c-18 8-34 8-48 2 8 22 22 36 42 42-10 6-16 16-16 28 18-8 34-6 48 2-8-18-8-34 0-50-8-6-18-14-26-24z"/>
    <path d="M142 86c18 8 34 8 48 2-8 22-22 36-42 42 10 6 16 16 16 28-18-8-34-6-48 2 8-18 8-34 0-50 8-6 18-14 26-24z"/>
    <path d="M100 118c-16 10-24 28-22 48h44c2-20-6-38-22-48z"/>
    <circle cx="78" cy="46" r="8"/>
    <circle cx="122" cy="46" r="8"/>
    <path d="M92 42h16v10H92z"/>
  </g>
  <path fill="#c9a227" d="M88 158h24l-4 36h-16z"/>
  <path fill="#b8860b" d="M84 194h32l-16 18z"/>
</svg>
